<?xml version="1.0" encoding="UTF-8" standalone="no"?>
<!-- Created with Inkscape (http://www.inkscape.org/) -->

<svg
   width="1920"
   height="1080"
   viewBox="0 0 508 285.75"
   version="1.1"
   id="svg5"
   inkscape:version="1.1 (c68e22c387, 2021-05-23)"
   sodipodi:docname="ZOOM CHOW LOGO.svg"
   xmlns:inkscape="http://www.inkscape.org/namespaces/inkscape"
   xmlns:sodipodi="http://sodipodi.sourceforge.net/DTD/sodipodi-0.dtd"
   xmlns="http://www.w3.org/2000/svg"
   xmlns:svg="http://www.w3.org/2000/svg">
  <sodipodi:namedview
     id="namedview7"
     pagecolor="#606060"
     bordercolor="#000000"
     borderopacity="1"
     inkscape:pageshadow="2"
     inkscape:pageopacity="1"
     inkscape:pagecheckerboard="true"
     inkscape:document-units="mm"
     showgrid="true"
     borderlayer="true"
     inkscape:showpageshadow="false"
     inkscape:snap-page="false"
     showborder="true"
     inkscape:zoom="0.64"
     inkscape:cx="917.1875"
     inkscape:cy="471.09375"
     inkscape:window-width="1920"
     inkscape:window-height="1017"
     inkscape:window-x="-8"
     inkscape:window-y="-8"
     inkscape:window-maximized="1"
     inkscape:current-layer="layer2"
     units="px"
     showguides="true">
    <sodipodi:guide
       position="0,142.875"
       orientation="0,960"
       id="guide57" />
    <sodipodi:guide
       position="254,142.875"
       orientation="-540,0"
       id="guide59" />
    <sodipodi:guide
       position="127.54691,269.32809"
       orientation="477.93301,0"
       id="guide4008" />
    <sodipodi:guide
       position="127.54691,142.87498"
       orientation="0,477.93293"
       id="guide4010" />
    <sodipodi:guide
       position="254,142.87498"
       orientation="-477.93301,0"
       id="guide4012" />
    <sodipodi:guide
       position="254,269.32809"
       orientation="0,-477.93293"
       id="guide4014" />
    <sodipodi:guide
       position="254,269.32809"
       orientation="477.93301,0"
       id="guide4016" />
    <sodipodi:guide
       position="254,142.87498"
       orientation="0,477.93296"
       id="guide4018" />
    <sodipodi:guide
       position="380.45309,142.87498"
       orientation="-477.93301,0"
       id="guide4020" />
    <sodipodi:guide
       position="380.45309,269.32809"
       orientation="0,-477.93296"
       id="guide4022" />
    <sodipodi:guide
       position="127.54691,142.875"
       orientation="477.93307,0"
       id="guide4024" />
    <sodipodi:guide
       position="127.54691,16.421875"
       orientation="0,477.93293"
       id="guide4026" />
    <sodipodi:guide
       position="254,16.421875"
       orientation="-477.93307,0"
       id="guide4028" />
    <sodipodi:guide
       position="254,142.875"
       orientation="0,-477.93293"
       id="guide4030" />
    <sodipodi:guide
       position="254,142.87502"
       orientation="477.93301,0"
       id="guide4032" />
    <sodipodi:guide
       position="254,16.421906"
       orientation="0,477.93296"
       id="guide4034" />
    <sodipodi:guide
       position="380.45309,16.421906"
       orientation="-477.93301,0"
       id="guide4036" />
    <sodipodi:guide
       position="380.45309,142.87502"
       orientation="0,-477.93296"
       id="guide4038" />
    <inkscape:grid
       type="xygrid"
       id="grid27268" />
  </sodipodi:namedview>
  <defs
     id="defs2" />
  <g
     inkscape:label="Background"
     inkscape:groupmode="layer"
     id="layer1"
     style="display:inline;opacity:1"
     sodipodi:insensitive="true">
    <rect
       style="fill:#ffffff;fill-opacity:0;stroke-width:0.403646"
       id="rect110"
       width="508"
       height="285.75"
       x="0"
       y="0"
       rx="0"
       ry="0" />
  </g>
  <g
     inkscape:groupmode="layer"
     id="layer2"
     inkscape:label="BOX &amp; O's"
     style="display:inline">
    <rect
       style="fill:#00a4ef;fill-opacity:1;stroke:#ffffff;stroke-width:0;stroke-linecap:round;stroke-linejoin:round;stroke-miterlimit:4;stroke-dasharray:none;paint-order:markers stroke fill"
       id="rect1647"
       width="252.90619"
       height="252.90619"
       x="127.54691"
       y="16.421906"
       rx="32.532585"
       ry="32.532585" />
    <rect
       style="fill:#ffffff;fill-opacity:1;stroke:none;stroke-width:10.8052;stroke-miterlimit:4;stroke-dasharray:none;stroke-opacity:1;paint-order:markers stroke fill"
       id="rect26596"
       width="14.399895"
       height="104.77499"
       x="148.43124"
       y="148.69901"
       ry="7.1999474"
       rx="7.1999474" />
    <rect
       style="display:inline;fill:#ffffff;fill-opacity:1;stroke:none;stroke-width:10.8052;stroke-miterlimit:4;stroke-dasharray:none;stroke-opacity:1;paint-order:markers stroke fill"
       id="rect26596-1"
       width="14.399895"
       height="104.77499"
       x="234.04385"
       y="148.69901"
       ry="7.1999474"
       rx="7.1999474" />
    <rect
       style="fill:#ffffff;fill-opacity:1;stroke:none;stroke-width:18;stroke-miterlimit:4;stroke-dasharray:none;stroke-opacity:1;paint-order:markers stroke fill"
       id="rect27518"
       width="71.4375"
       height="14.2875"
       x="162.71875"
       y="193.93956" />
    <path
       id="path1734"
       style="fill:#ffffff;fill-opacity:1;stroke:none;stroke-width:18.7807;stroke-opacity:1;paint-order:markers stroke fill"
       d="m 312.20833,148.699 a 52.585939,52.585939 0 0 0 -52.58594,52.58594 52.585939,52.585939 0 0 0 52.58594,52.58593 52.585939,52.585939 0 0 0 52.58593,-52.58593 52.585939,52.585939 0 0 0 -52.58593,-52.58594 z m 0,14.26271 a 38.323244,38.323244 0 0 1 0.9865,0.0129 38.323244,38.323244 0 0 1 0.98649,0.0377 38.323244,38.323244 0 0 1 0.98444,0.0636 38.323244,38.323244 0 0 1 0.98287,0.0889 38.323244,38.323244 0 0 1 0.98031,0.11419 38.323244,38.323244 0 0 1 0.97721,0.13902 38.323244,38.323244 0 0 1 0.97253,0.16486 38.323244,38.323244 0 0 1 0.96896,0.18912 38.323244,38.323244 0 0 1 0.96324,0.21445 38.323244,38.323244 0 0 1 0.95705,0.23876 38.323244,38.323244 0 0 1 0.95136,0.26355 38.323244,38.323244 0 0 1 0.94361,0.28834 38.323244,38.323244 0 0 1 0.93637,0.31213 38.323244,38.323244 0 0 1 0.9276,0.33589 38.323244,38.323244 0 0 1 0.91882,0.3602 38.323244,38.323244 0 0 1 0.9095,0.38344 38.323244,38.323244 0 0 1 0.89916,0.40669 38.323244,38.323244 0 0 1 0.88781,0.42995 38.323244,38.323244 0 0 1 0.87694,0.45267 38.323244,38.323244 0 0 1 0.86505,0.47493 38.323244,38.323244 0 0 1 0.85267,0.49712 38.323244,38.323244 0 0 1 0.83924,0.51883 38.323244,38.323244 0 0 1 0.82579,0.54001 38.323244,38.323244 0 0 1 0.81182,0.56174 38.323244,38.323244 0 0 1 0.79684,0.58187 38.323244,38.323244 0 0 1 0.78137,0.60254 38.323244,38.323244 0 0 1 0.76584,0.62219 38.323244,38.323244 0 0 1 0.74983,0.64183 38.323244,38.323244 0 0 1 0.73276,0.66092 38.323244,38.323244 0 0 1 0.71572,0.67956 38.323244,38.323244 0 0 1 0.69763,0.69763 38.323244,38.323244 0 0 1 0.67956,0.71572 38.323244,38.323244 0 0 1 0.66093,0.73277 38.323244,38.323244 0 0 1 0.64182,0.74982 38.323244,38.323244 0 0 1 0.6222,0.76584 38.323244,38.323244 0 0 1 0.60253,0.78137 38.323244,38.323244 0 0 1 0.5824,0.79684 38.323244,38.323244 0 0 1 0.56121,0.81182 38.323244,38.323244 0 0 1 0.54002,0.8258 38.323244,38.323244 0 0 1 0.51882,0.83923 38.323244,38.323244 0 0 1 0.49712,0.85267 38.323244,38.323244 0 0 1 0.47493,0.86506 38.323244,38.323244 0 0 1 0.45268,0.87693 38.323244,38.323244 0 0 1 0.42994,0.88834 38.323244,38.323244 0 0 1 0.40669,0.89863 38.323244,38.323244 0 0 1 0.38344,0.90951 38.323244,38.323244 0 0 1 0.3602,0.91881 38.323244,38.323244 0 0 1 0.33589,0.92761 38.323244,38.323244 0 0 1 0.31213,0.93636 38.323244,38.323244 0 0 1 0.28834,0.94361 38.323244,38.323244 0 0 1 0.26355,0.95136 38.323244,38.323244 0 0 1 0.23876,0.95705 38.323244,38.323244 0 0 1 0.21445,0.96324 38.323244,38.323244 0 0 1 0.18912,0.96896 38.323244,38.323244 0 0 1 0.16486,0.97306 38.323244,38.323244 0 0 1 0.13902,0.97668 38.323244,38.323244 0 0 1 0.11419,0.98031 38.323244,38.323244 0 0 1 0.0889,0.98287 38.323244,38.323244 0 0 1 0.0635,0.98444 38.323244,38.323244 0 0 1 0.0377,0.9865 38.323244,38.323244 0 0 1 0.0129,0.9865 38.323244,38.323244 0 0 1 -0.10698,2.86392 38.323244,38.323244 0 0 1 -0.32091,2.84787 38.323244,38.323244 0 0 1 -0.53279,2.81586 38.323244,38.323244 0 0 1 -0.74205,2.76831 38.323244,38.323244 0 0 1 -0.9462,2.70526 38.323244,38.323244 0 0 1 -1.14618,2.62673 38.323244,38.323244 0 0 1 -1.33948,2.53367 38.323244,38.323244 0 0 1 -1.52445,2.42673 38.323244,38.323244 0 0 1 -1.70169,2.3058 38.323244,38.323244 0 0 1 -1.86965,2.17249 38.323244,38.323244 0 0 1 -2.02624,2.02623 38.323244,38.323244 0 0 1 -2.17249,1.86965 38.323244,38.323244 0 0 1 -2.30579,1.7017 38.323244,38.323244 0 0 1 -2.42673,1.52447 38.323244,38.323244 0 0 1 -2.53368,1.33943 38.323244,38.323244 0 0 1 -2.62673,1.1462 38.323244,38.323244 0 0 1 -2.70526,0.9462 38.323244,38.323244 0 0 1 -2.76831,0.74205 38.323244,38.323244 0 0 1 -2.81585,0.5328 38.323244,38.323244 0 0 1 -2.84787,0.32091 38.323244,38.323244 0 0 1 -2.8639,0.10697 38.323244,38.323244 0 0 1 -2.86393,-0.10697 38.323244,38.323244 0 0 1 -2.84787,-0.32091 38.323244,38.323244 0 0 1 -2.81586,-0.5328 38.323244,38.323244 0 0 1 -2.76831,-0.74205 38.323244,38.323244 0 0 1 -2.70525,-0.9462 38.323244,38.323244 0 0 1 -2.62673,-1.1462 38.323244,38.323244 0 0 1 -2.53368,-1.33943 38.323244,38.323244 0 0 1 -2.42673,-1.52447 38.323244,38.323244 0 0 1 -2.30579,-1.7017 38.323244,38.323244 0 0 1 -2.1725,-1.86965 38.323244,38.323244 0 0 1 -2.02623,-2.02623 38.323244,38.323244 0 0 1 -1.86965,-2.17249 38.323244,38.323244 0 0 1 -1.7017,-2.3058 38.323244,38.323244 0 0 1 -1.52447,-2.42673 38.323244,38.323244 0 0 1 -1.33943,-2.53367 38.323244,38.323244 0 0 1 -1.1462,-2.62673 38.323244,38.323244 0 0 1 -0.9462,-2.70526 38.323244,38.323244 0 0 1 -0.74205,-2.76831 38.323244,38.323244 0 0 1 -0.53279,-2.81586 38.323244,38.323244 0 0 1 -0.32092,-2.84787 38.323244,38.323244 0 0 1 -0.10697,-2.86392 38.323244,38.323244 0 0 1 0.10697,-2.86391 38.323244,38.323244 0 0 1 0.32092,-2.84787 38.323244,38.323244 0 0 1 0.53279,-2.81585 38.323244,38.323244 0 0 1 0.74205,-2.76831 38.323244,38.323244 0 0 1 0.9462,-2.70526 38.323244,38.323244 0 0 1 1.1462,-2.62673 38.323244,38.323244 0 0 1 1.33943,-2.53368 38.323244,38.323244 0 0 1 1.52447,-2.42673 38.323244,38.323244 0 0 1 1.7017,-2.30579 38.323244,38.323244 0 0 1 1.86965,-2.17249 38.323244,38.323244 0 0 1 2.02623,-2.02623 38.323244,38.323244 0 0 1 2.1725,-1.86966 38.323244,38.323244 0 0 1 2.30579,-1.70169 38.323244,38.323244 0 0 1 2.42673,-1.52445 38.323244,38.323244 0 0 1 2.53368,-1.33948 38.323244,38.323244 0 0 1 2.62673,-1.14617 38.323244,38.323244 0 0 1 2.70525,-0.94621 38.323244,38.323244 0 0 1 2.76831,-0.74205 38.323244,38.323244 0 0 1 2.81586,-0.53279 38.323244,38.323244 0 0 1 2.84787,-0.32091 38.323244,38.323244 0 0 1 2.86393,-0.10697 z" />
    <path
       id="path2042"
       style="fill:#ffffff;fill-opacity:1;stroke:none;stroke-width:18.7807;stroke-opacity:1;paint-order:markers stroke fill"
       d="M 312.40894,32.235 A 52.585939,52.585939 0 0 0 259.823,84.820943 52.585939,52.585939 0 0 0 312.40894,137.40687 52.585939,52.585939 0 0 0 364.99487,84.820943 52.585939,52.585939 0 0 0 312.40894,32.235 Z m 0,14.26271 a 38.323244,38.323244 0 0 1 0.9865,0.0129 38.323244,38.323244 0 0 1 0.98649,0.0377 38.323244,38.323244 0 0 1 0.98444,0.0636 38.323244,38.323244 0 0 1 0.98287,0.0889 38.323244,38.323244 0 0 1 0.98031,0.11419 38.323244,38.323244 0 0 1 0.97721,0.13902 38.323244,38.323244 0 0 1 0.97253,0.16486 38.323244,38.323244 0 0 1 0.96896,0.18912 38.323244,38.323244 0 0 1 0.96324,0.21445 38.323244,38.323244 0 0 1 0.95705,0.23876 38.323244,38.323244 0 0 1 0.95136,0.26355 38.323244,38.323244 0 0 1 0.94361,0.28834 38.323244,38.323244 0 0 1 0.93637,0.31213 38.323244,38.323244 0 0 1 0.9276,0.33589 38.323244,38.323244 0 0 1 0.91882,0.3602 38.323244,38.323244 0 0 1 0.9095,0.38344 38.323244,38.323244 0 0 1 0.89916,0.40669 38.323244,38.323244 0 0 1 0.88781,0.42995 38.323244,38.323244 0 0 1 0.87694,0.45267 38.323244,38.323244 0 0 1 0.86505,0.47493 38.323244,38.323244 0 0 1 0.85267,0.49712 38.323244,38.323244 0 0 1 0.83924,0.51883 38.323244,38.323244 0 0 1 0.82579,0.54001 38.323244,38.323244 0 0 1 0.81182,0.56174 38.323244,38.323244 0 0 1 0.79684,0.58187 38.323244,38.323244 0 0 1 0.78137,0.60254 38.323244,38.323244 0 0 1 0.76584,0.62219 38.323244,38.323244 0 0 1 0.74983,0.64183 38.323244,38.323244 0 0 1 0.73276,0.66092 38.323244,38.323244 0 0 1 0.71572,0.67956 38.323244,38.323244 0 0 1 0.69763,0.69763 38.323244,38.323244 0 0 1 0.67956,0.71572 38.323244,38.323244 0 0 1 0.66093,0.73277 38.323244,38.323244 0 0 1 0.64182,0.74982 38.323244,38.323244 0 0 1 0.6222,0.76584 38.323244,38.323244 0 0 1 0.60253,0.78137 38.323244,38.323244 0 0 1 0.5824,0.79684 38.323244,38.323244 0 0 1 0.56121,0.81182 38.323244,38.323244 0 0 1 0.54002,0.8258 38.323244,38.323244 0 0 1 0.51882,0.83923 38.323244,38.323244 0 0 1 0.49712,0.85267 38.323244,38.323244 0 0 1 0.47493,0.86506 38.323244,38.323244 0 0 1 0.45268,0.87693 38.323244,38.323244 0 0 1 0.42994,0.88834 38.323244,38.323244 0 0 1 0.40669,0.89863 38.323244,38.323244 0 0 1 0.38344,0.90951 38.323244,38.323244 0 0 1 0.3602,0.91881 38.323244,38.323244 0 0 1 0.33589,0.92761 38.323244,38.323244 0 0 1 0.31213,0.93636 38.323244,38.323244 0 0 1 0.28834,0.94361 38.323244,38.323244 0 0 1 0.26355,0.95136 38.323244,38.323244 0 0 1 0.23876,0.95705 38.323244,38.323244 0 0 1 0.21445,0.96324 38.323244,38.323244 0 0 1 0.18912,0.968963 38.323244,38.323244 0 0 1 0.16486,0.97306 38.323244,38.323244 0 0 1 0.13902,0.97668 38.323244,38.323244 0 0 1 0.11419,0.98031 38.323244,38.323244 0 0 1 0.0889,0.98287 38.323244,38.323244 0 0 1 0.0635,0.98444 38.323244,38.323244 0 0 1 0.0377,0.9865 38.323244,38.323244 0 0 1 0.0129,0.9865 38.323244,38.323244 0 0 1 -0.10698,2.86392 38.323244,38.323244 0 0 1 -0.32091,2.84787 38.323244,38.323244 0 0 1 -0.53279,2.81586 38.323244,38.323244 0 0 1 -0.74205,2.76831 38.323244,38.323244 0 0 1 -0.9462,2.70526 38.323244,38.323244 0 0 1 -1.14618,2.626727 38.323244,38.323244 0 0 1 -1.33948,2.53367 38.323244,38.323244 0 0 1 -1.52445,2.42673 38.323244,38.323244 0 0 1 -1.70169,2.3058 38.323244,38.323244 0 0 1 -1.86965,2.17249 38.323244,38.323244 0 0 1 -2.02624,2.02623 38.323244,38.323244 0 0 1 -2.17249,1.86965 38.323244,38.323244 0 0 1 -2.30579,1.7017 38.323244,38.323244 0 0 1 -2.42673,1.52447 38.323244,38.323244 0 0 1 -2.53368,1.33943 38.323244,38.323244 0 0 1 -2.62673,1.1462 38.323244,38.323244 0 0 1 -2.70526,0.9462 38.323244,38.323244 0 0 1 -2.76831,0.74205 38.323244,38.323244 0 0 1 -2.81585,0.5328 38.323244,38.323244 0 0 1 -2.84787,0.32091 38.323244,38.323244 0 0 1 -2.8639,0.10697 38.323244,38.323244 0 0 1 -2.86393,-0.10697 38.323244,38.323244 0 0 1 -2.84787,-0.32091 38.323244,38.323244 0 0 1 -2.81586,-0.5328 38.323244,38.323244 0 0 1 -2.76831,-0.74205 38.323244,38.323244 0 0 1 -2.70525,-0.9462 38.323244,38.323244 0 0 1 -2.62673,-1.1462 38.323244,38.323244 0 0 1 -2.53368,-1.33943 38.323244,38.323244 0 0 1 -2.42673,-1.52447 38.323244,38.323244 0 0 1 -2.30579,-1.7017 38.323244,38.323244 0 0 1 -2.1725,-1.86965 38.323244,38.323244 0 0 1 -2.02623,-2.02623 38.323244,38.323244 0 0 1 -1.86965,-2.17249 38.323244,38.323244 0 0 1 -1.7017,-2.3058 38.323244,38.323244 0 0 1 -1.52447,-2.42673 38.323244,38.323244 0 0 1 -1.33943,-2.53367 38.323244,38.323244 0 0 1 -1.1462,-2.626727 38.323244,38.323244 0 0 1 -0.9462,-2.70526 38.323244,38.323244 0 0 1 -0.74205,-2.76831 38.323244,38.323244 0 0 1 -0.53279,-2.81586 38.323244,38.323244 0 0 1 -0.32092,-2.84787 38.323244,38.323244 0 0 1 -0.10697,-2.86392 38.323244,38.323244 0 0 1 0.10697,-2.86391 38.323244,38.323244 0 0 1 0.32092,-2.84787 38.323244,38.323244 0 0 1 0.53279,-2.815853 38.323244,38.323244 0 0 1 0.74205,-2.76831 38.323244,38.323244 0 0 1 0.9462,-2.70526 38.323244,38.323244 0 0 1 1.1462,-2.62673 38.323244,38.323244 0 0 1 1.33943,-2.53368 38.323244,38.323244 0 0 1 1.52447,-2.42673 38.323244,38.323244 0 0 1 1.7017,-2.30579 38.323244,38.323244 0 0 1 1.86965,-2.17249 38.323244,38.323244 0 0 1 2.02623,-2.02623 38.323244,38.323244 0 0 1 2.1725,-1.86966 38.323244,38.323244 0 0 1 2.30579,-1.70169 38.323244,38.323244 0 0 1 2.42673,-1.52445 38.323244,38.323244 0 0 1 2.53368,-1.33948 38.323244,38.323244 0 0 1 2.62673,-1.14617 38.323244,38.323244 0 0 1 2.70525,-0.94621 38.323244,38.323244 0 0 1 2.76831,-0.74205 38.323244,38.323244 0 0 1 2.81586,-0.53279 38.323244,38.323244 0 0 1 2.84787,-0.32091 38.323244,38.323244 0 0 1 2.86393,-0.10697 z" />
    <path
       id="path2044"
       style="fill:#ffffff;fill-opacity:1;stroke:none;stroke-width:18.7807;stroke-opacity:1;paint-order:markers stroke fill"
       d="M 195.94594,32.235 A 52.585939,52.585939 0 0 0 143.36,84.82095 52.585939,52.585939 0 0 0 195.94594,137.40688 52.585939,52.585939 0 0 0 248.53187,84.82095 52.585939,52.585939 0 0 0 195.94594,32.235 Z m 0,14.26271 a 38.323244,38.323244 0 0 1 0.9865,0.0129 38.323244,38.323244 0 0 1 0.98649,0.0377 38.323244,38.323244 0 0 1 0.98444,0.0636 38.323244,38.323244 0 0 1 0.98287,0.0889 38.323244,38.323244 0 0 1 0.98031,0.11419 38.323244,38.323244 0 0 1 0.97721,0.13902 38.323244,38.323244 0 0 1 0.97253,0.16486 38.323244,38.323244 0 0 1 0.96896,0.18912 38.323244,38.323244 0 0 1 0.96324,0.21445 38.323244,38.323244 0 0 1 0.95705,0.23876 38.323244,38.323244 0 0 1 0.95136,0.26355 38.323244,38.323244 0 0 1 0.94361,0.28834 38.323244,38.323244 0 0 1 0.93637,0.31213 38.323244,38.323244 0 0 1 0.9276,0.33589 38.323244,38.323244 0 0 1 0.91882,0.3602 38.323244,38.323244 0 0 1 0.9095,0.38344 38.323244,38.323244 0 0 1 0.89916,0.40669 38.323244,38.323244 0 0 1 0.88781,0.42995 38.323244,38.323244 0 0 1 0.87694,0.45267 38.323244,38.323244 0 0 1 0.86505,0.47493 38.323244,38.323244 0 0 1 0.85267,0.49712 38.323244,38.323244 0 0 1 0.83924,0.51883 38.323244,38.323244 0 0 1 0.82579,0.54001 38.323244,38.323244 0 0 1 0.81182,0.56174 38.323244,38.323244 0 0 1 0.79684,0.58187 38.323244,38.323244 0 0 1 0.78137,0.60254 38.323244,38.323244 0 0 1 0.76584,0.62219 38.323244,38.323244 0 0 1 0.74983,0.64183 38.323244,38.323244 0 0 1 0.73276,0.66092 38.323244,38.323244 0 0 1 0.71572,0.67956 38.323244,38.323244 0 0 1 0.69763,0.69763 38.323244,38.323244 0 0 1 0.67956,0.71572 38.323244,38.323244 0 0 1 0.66093,0.73277 38.323244,38.323244 0 0 1 0.64182,0.74982 38.323244,38.323244 0 0 1 0.6222,0.76584 38.323244,38.323244 0 0 1 0.60253,0.78137 38.323244,38.323244 0 0 1 0.5824,0.79684 38.323244,38.323244 0 0 1 0.56121,0.81182 38.323244,38.323244 0 0 1 0.54002,0.8258 38.323244,38.323244 0 0 1 0.51882,0.83923 38.323244,38.323244 0 0 1 0.49712,0.85267 38.323244,38.323244 0 0 1 0.47493,0.86506 38.323244,38.323244 0 0 1 0.45268,0.87693 38.323244,38.323244 0 0 1 0.42994,0.88834 38.323244,38.323244 0 0 1 0.40669,0.89863 38.323244,38.323244 0 0 1 0.38344,0.90951 38.323244,38.323244 0 0 1 0.3602,0.91881 38.323244,38.323244 0 0 1 0.33589,0.92761 38.323244,38.323244 0 0 1 0.31213,0.93636 38.323244,38.323244 0 0 1 0.28834,0.94361 38.323244,38.323244 0 0 1 0.26355,0.95136 38.323244,38.323244 0 0 1 0.23876,0.95705 38.323244,38.323244 0 0 1 0.21445,0.96324 38.323244,38.323244 0 0 1 0.18912,0.96897 38.323244,38.323244 0 0 1 0.16486,0.97306 38.323244,38.323244 0 0 1 0.13902,0.97668 38.323244,38.323244 0 0 1 0.11419,0.98031 38.323244,38.323244 0 0 1 0.0889,0.98287 38.323244,38.323244 0 0 1 0.0635,0.98444 38.323244,38.323244 0 0 1 0.0377,0.9865 38.323244,38.323244 0 0 1 0.0129,0.9865 38.323244,38.323244 0 0 1 -0.10698,2.86392 38.323244,38.323244 0 0 1 -0.32091,2.84787 38.323244,38.323244 0 0 1 -0.53279,2.81586 38.323244,38.323244 0 0 1 -0.74205,2.76831 38.323244,38.323244 0 0 1 -0.9462,2.70526 38.323244,38.323244 0 0 1 -1.14618,2.62673 38.323244,38.323244 0 0 1 -1.33948,2.53367 38.323244,38.323244 0 0 1 -1.52445,2.42673 38.323244,38.323244 0 0 1 -1.70169,2.3058 38.323244,38.323244 0 0 1 -1.86965,2.17249 38.323244,38.323244 0 0 1 -2.02624,2.02623 38.323244,38.323244 0 0 1 -2.17249,1.86965 38.323244,38.323244 0 0 1 -2.30579,1.7017 38.323244,38.323244 0 0 1 -2.42673,1.52447 38.323244,38.323244 0 0 1 -2.53368,1.33943 38.323244,38.323244 0 0 1 -2.62673,1.1462 38.323244,38.323244 0 0 1 -2.70526,0.9462 38.323244,38.323244 0 0 1 -2.76831,0.74205 38.323244,38.323244 0 0 1 -2.81585,0.5328 38.323244,38.323244 0 0 1 -2.84787,0.32091 38.323244,38.323244 0 0 1 -2.8639,0.10697 38.323244,38.323244 0 0 1 -2.86393,-0.10697 38.323244,38.323244 0 0 1 -2.84787,-0.32091 38.323244,38.323244 0 0 1 -2.81586,-0.5328 38.323244,38.323244 0 0 1 -2.76831,-0.74205 38.323244,38.323244 0 0 1 -2.70525,-0.9462 38.323244,38.323244 0 0 1 -2.62673,-1.1462 38.323244,38.323244 0 0 1 -2.53368,-1.33943 38.323244,38.323244 0 0 1 -2.42673,-1.52447 38.323244,38.323244 0 0 1 -2.30579,-1.7017 38.323244,38.323244 0 0 1 -2.1725,-1.86965 38.323244,38.323244 0 0 1 -2.02623,-2.02623 38.323244,38.323244 0 0 1 -1.86965,-2.17249 38.323244,38.323244 0 0 1 -1.7017,-2.3058 38.323244,38.323244 0 0 1 -1.52447,-2.42673 38.323244,38.323244 0 0 1 -1.33943,-2.53367 38.323244,38.323244 0 0 1 -1.1462,-2.62673 38.323244,38.323244 0 0 1 -0.9462,-2.70526 38.323244,38.323244 0 0 1 -0.74205,-2.76831 38.323244,38.323244 0 0 1 -0.53279,-2.81586 38.323244,38.323244 0 0 1 -0.32092,-2.84787 38.323244,38.323244 0 0 1 -0.10697,-2.86392 38.323244,38.323244 0 0 1 0.10697,-2.86391 38.323244,38.323244 0 0 1 0.32092,-2.84787 38.323244,38.323244 0 0 1 0.53279,-2.81586 38.323244,38.323244 0 0 1 0.74205,-2.76831 38.323244,38.323244 0 0 1 0.9462,-2.70526 38.323244,38.323244 0 0 1 1.1462,-2.62673 38.323244,38.323244 0 0 1 1.33943,-2.53368 38.323244,38.323244 0 0 1 1.52447,-2.42673 38.323244,38.323244 0 0 1 1.7017,-2.30579 38.323244,38.323244 0 0 1 1.86965,-2.17249 38.323244,38.323244 0 0 1 2.02623,-2.02623 38.323244,38.323244 0 0 1 2.1725,-1.86966 38.323244,38.323244 0 0 1 2.30579,-1.70169 38.323244,38.323244 0 0 1 2.42673,-1.52445 38.323244,38.323244 0 0 1 2.53368,-1.33948 38.323244,38.323244 0 0 1 2.62673,-1.14617 38.323244,38.323244 0 0 1 2.70525,-0.94621 38.323244,38.323244 0 0 1 2.76831,-0.74205 38.323244,38.323244 0 0 1 2.81586,-0.53279 38.323244,38.323244 0 0 1 2.84787,-0.32091 38.323244,38.323244 0 0 1 2.86393,-0.10697 z" />
  </g>
  <g
     inkscape:groupmode="layer"
     id="layer4"
     inkscape:label="Layer 2"
     style="display:inline"
     sodipodi:insensitive="true">
    <rect
       style="display:inline;fill:#00a4ef;fill-opacity:1;stroke:none;stroke-width:10.8074;stroke-miterlimit:4;stroke-dasharray:none;stroke-opacity:1;paint-order:markers stroke fill"
       id="rect26596-2"
       width="14.399895"
       height="104.81725"
       x="32.191208"
       y="-116.15208"
       ry="7.2028518"
       rx="7.1999474"
       transform="matrix(-0.00236989,0.99999719,-0.9999972,-0.00236798,0,0)" />
    <rect
       style="display:inline;fill:#00a4ef;fill-opacity:1;stroke:none;stroke-width:10.8074;stroke-miterlimit:4;stroke-dasharray:none;stroke-opacity:1;paint-order:markers stroke fill"
       id="rect26596-2-0"
       width="14.399895"
       height="104.81725"
       x="122.55619"
       y="-116.36623"
       ry="7.2028518"
       rx="7.1999474"
       transform="matrix(-0.00236989,0.99999719,-0.9999972,-0.00236798,0,0)" />
    <rect
       style="display:inline;fill:#00a4ef;fill-opacity:1;stroke:none;stroke-width:12.9661;stroke-miterlimit:4;stroke-dasharray:none;stroke-opacity:1;paint-order:markers stroke fill"
       id="rect26596-2-0-6"
       width="15.235861"
       height="142.59447"
       x="-112.40238"
       y="-86.077576"
       ry="9.7988348"
       rx="7.6179304"
       transform="matrix(-0.70494885,-0.70925815,0.70840785,-0.70580331,0,0)" />
    <rect
       style="display:inline;fill:#00a4ef;fill-opacity:1;stroke:none;stroke-width:10.739;stroke-miterlimit:4;stroke-dasharray:none;stroke-opacity:1;paint-order:markers stroke fill"
       id="rect26596-2-0-6-99"
       width="14.399894"
       height="103.49456"
       x="-25.289545"
       y="-252.95908"
       ry="7.111959"
       rx="7.1999469"
       transform="matrix(-0.99999726,-0.00233998,0.00239824,-0.99999712,0,0)" />
    <rect
       style="display:inline;fill:#00a4ef;fill-opacity:1;stroke:none;stroke-width:10.8074;stroke-miterlimit:4;stroke-dasharray:none;stroke-opacity:1;paint-order:markers stroke fill"
       id="rect26596-2-2"
       width="14.399895"
       height="104.81725"
       x="-497.1636"
       y="-135.8912"
       ry="7.2028518"
       rx="7.1999474"
       transform="matrix(-0.99999719,-0.00236989,0.00236798,-0.9999972,0,0)" />
    <rect
       style="display:inline;fill:#00a4ef;fill-opacity:1;stroke:none;stroke-width:10.8074;stroke-miterlimit:4;stroke-dasharray:none;stroke-opacity:1;paint-order:markers stroke fill"
       id="rect26596-2-0-1"
       width="14.399906"
       height="104.81725"
       x="-406.79861"
       y="-136.10536"
       ry="7.2028518"
       rx="7.1999531"
       transform="matrix(-0.99999719,-0.00236989,0.00236798,-0.9999972,0,0)" />
    <rect
       style="display:inline;fill:#00a4ef;fill-opacity:1;stroke:none;stroke-width:10.8074;stroke-miterlimit:4;stroke-dasharray:none;stroke-opacity:1;paint-order:markers stroke fill"
       id="rect26596-2-0-1-2"
       width="14.399906"
       height="104.81725"
       x="-45.689278"
       y="392.18433"
       ry="7.2028518"
       rx="7.1999531"
       transform="matrix(0.00236989,-0.99999719,0.9999972,0.00236798,0,0)" />
    <rect
       style="display:inline;fill:#00a4ef;fill-opacity:1;stroke:none;stroke-width:10.8074;stroke-miterlimit:4;stroke-dasharray:none;stroke-opacity:1;paint-order:markers stroke fill"
       id="rect26596-2-2-6"
       width="14.399895"
       height="104.81725"
       x="392.67496"
       y="147.75179"
       ry="7.2028518"
       rx="7.1999474"
       transform="matrix(0.99999719,0.00236989,-0.00236798,0.9999972,0,0)" />
    <rect
       style="display:inline;fill:#00a4ef;fill-opacity:1;stroke:none;stroke-width:10.8074;stroke-miterlimit:4;stroke-dasharray:none;stroke-opacity:1;paint-order:markers stroke fill"
       id="rect26596-2-1"
       width="14.399895"
       height="104.81725"
       x="148.65654"
       y="-115.73489"
       ry="7.2028518"
       rx="7.1999474"
       transform="matrix(-0.00236989,0.99999719,-0.9999972,-0.00236798,0,0)" />
    <rect
       style="display:inline;fill:#00a4ef;fill-opacity:1;stroke:none;stroke-width:10.8074;stroke-miterlimit:4;stroke-dasharray:none;stroke-opacity:1;paint-order:markers stroke fill"
       id="rect26596-2-0-0"
       width="14.399895"
       height="104.81725"
       x="239.0215"
       y="-115.94901"
       ry="7.2028518"
       rx="7.1999474"
       transform="matrix(-0.00236989,0.99999719,-0.9999972,-0.00236798,0,0)" />
    <rect
       style="display:inline;fill:#00a4ef;fill-opacity:1;stroke:none;stroke-width:10.8074;stroke-miterlimit:4;stroke-dasharray:none;stroke-opacity:1;paint-order:markers stroke fill"
       id="rect26596-2-0-6-9"
       width="14.399895"
       height="104.81725"
       x="-451.98111"
       y="-135.99829"
       ry="7.2028518"
       rx="7.1999474"
       transform="matrix(-0.99999719,-0.00236989,0.00236798,-0.9999972,0,0)" />
    <rect
       style="display:inline;fill:#00a4ef;fill-opacity:1;stroke:none;stroke-width:10.8074;stroke-miterlimit:4;stroke-dasharray:none;stroke-opacity:1;paint-order:markers stroke fill"
       id="rect26596-2-0-1-8"
       width="14.399895"
       height="104.81725"
       x="483.03995"
       y="147.53763"
       ry="7.2028518"
       rx="7.1999474"
       transform="matrix(0.99999719,0.00236989,-0.00236798,0.9999972,0,0)" />
    <rect
       style="display:inline;fill:#00a4ef;fill-opacity:1;stroke:none;stroke-width:10.8074;stroke-miterlimit:4;stroke-dasharray:none;stroke-opacity:1;paint-order:markers stroke fill"
       id="rect26596-2-0-6-9-5"
       width="14.399895"
       height="104.81725"
       x="437.85745"
       y="147.64471"
       ry="7.2028518"
       rx="7.1999474"
       transform="matrix(0.99999719,0.00236989,-0.00236798,0.9999972,0,0)" />
    <rect
       style="display:inline;fill:#00a4ef;fill-opacity:1;stroke:none;stroke-width:10.8074;stroke-miterlimit:4;stroke-dasharray:none;stroke-opacity:1;paint-order:markers stroke fill"
       id="rect26596-2-0-6-9-5-3"
       width="14.399895"
       height="104.81725"
       x="237.95543"
       y="-497.65424"
       ry="7.2028518"
       rx="7.1999474"
       transform="matrix(-0.00236989,0.99999719,-0.9999972,-0.00236798,0,0)" />
  </g>
</svg>
